<mxfile host="app.diagrams.net" modified="2023-05-20T16:15:10.582Z" agent="Mozilla/5.0 (X11; Linux x86_64) AppleWebKit/537.36 (KHTML, like Gecko) Chrome/112.0.0.0 Safari/537.36" etag="ba6ovfw2qcTqEaI6kV9b" version="21.3.2" type="github">
  <diagram name="PÃ¡gina-1" id="Bkhv1BzIpxXXVQEzDvKO">
    <mxGraphModel dx="1635" dy="463" grid="0" gridSize="10" guides="0" tooltips="1" connect="1" arrows="1" fold="1" page="1" pageScale="1" pageWidth="827" pageHeight="1169" math="0" shadow="0">
      <root>
        <mxCell id="0" />
        <mxCell id="1" parent="0" />
        <mxCell id="rcJcJloOi9SXId4dmmQ6-50" style="edgeStyle=orthogonalEdgeStyle;rounded=0;orthogonalLoop=1;jettySize=auto;html=1;" parent="1" source="rcJcJloOi9SXId4dmmQ6-2" target="rcJcJloOi9SXId4dmmQ6-9" edge="1">
          <mxGeometry relative="1" as="geometry" />
        </mxCell>
        <mxCell id="rcJcJloOi9SXId4dmmQ6-2" value="vecino" style="shape=umlActor;verticalLabelPosition=bottom;verticalAlign=top;html=1;outlineConnect=0;" parent="1" vertex="1">
          <mxGeometry x="730" y="110" width="30" height="60" as="geometry" />
        </mxCell>
        <mxCell id="rcJcJloOi9SXId4dmmQ6-51" style="edgeStyle=orthogonalEdgeStyle;rounded=0;orthogonalLoop=1;jettySize=auto;html=1;" parent="1" source="rcJcJloOi9SXId4dmmQ6-9" target="rcJcJloOi9SXId4dmmQ6-41" edge="1">
          <mxGeometry relative="1" as="geometry" />
        </mxCell>
        <mxCell id="rcJcJloOi9SXId4dmmQ6-9" value="movil" style="image;aspect=fixed;perimeter=ellipsePerimeter;html=1;align=center;shadow=0;dashed=0;spacingTop=3;image=img/lib/active_directory/cell_phone.svg;" parent="1" vertex="1">
          <mxGeometry x="630" y="130" width="21" height="50" as="geometry" />
        </mxCell>
        <mxCell id="rcJcJloOi9SXId4dmmQ6-26" value="vecino notifica vandalismo" style="shape=step;perimeter=stepPerimeter;whiteSpace=wrap;html=1;fixedSize=1;" parent="1" vertex="1">
          <mxGeometry x="80" y="400" width="120" height="80" as="geometry" />
        </mxCell>
        <mxCell id="rcJcJloOi9SXId4dmmQ6-27" value="serenazgo recibe notificacion y envia a personal a la zona" style="shape=step;perimeter=stepPerimeter;whiteSpace=wrap;html=1;fixedSize=1;" parent="1" vertex="1">
          <mxGeometry x="200" y="400" width="120" height="80" as="geometry" />
        </mxCell>
        <mxCell id="rcJcJloOi9SXId4dmmQ6-28" value="se controla la situacion" style="shape=step;perimeter=stepPerimeter;whiteSpace=wrap;html=1;fixedSize=1;" parent="1" vertex="1">
          <mxGeometry x="320" y="400" width="120" height="80" as="geometry" />
        </mxCell>
        <mxCell id="rcJcJloOi9SXId4dmmQ6-36" value="pendientes:&lt;br&gt;&lt;ul&gt;&lt;li&gt;sera una app web o una app mobil?&lt;br&gt;&lt;/li&gt;&lt;li&gt;como el serenazgo recibira la notificaacion, por llamada o por una pagina web?&lt;/li&gt;&lt;li&gt;el serenezgo o la municipalidad cuenta con una API para que le llegue la notificacion?&lt;/li&gt;&lt;li&gt;el servicio sera desplegado localmente o en la nube?&lt;/li&gt;&lt;li&gt;Si la notificacion le tiene que llegar a la municipaildad&lt;/li&gt;&lt;li&gt;la municipalidad cuenta con una central telefonica?&amp;nbsp;&lt;/li&gt;&lt;/ul&gt;" style="text;html=1;align=left;verticalAlign=middle;resizable=0;points=[];autosize=1;strokeColor=none;fillColor=none;" parent="1" vertex="1">
          <mxGeometry x="260" y="490" width="520" height="140" as="geometry" />
        </mxCell>
        <mxCell id="rcJcJloOi9SXId4dmmQ6-40" value="terminos:&lt;br&gt;&lt;ul&gt;&lt;li&gt;municipalidad: cuida a los vecinos&lt;/li&gt;&lt;li&gt;serenazgo: Realiza la accion de control&lt;/li&gt;&lt;/ul&gt;" style="text;html=1;align=left;verticalAlign=middle;resizable=0;points=[];autosize=1;strokeColor=none;fillColor=none;" parent="1" vertex="1">
          <mxGeometry x="-25" y="513" width="270" height="80" as="geometry" />
        </mxCell>
        <mxCell id="rcJcJloOi9SXId4dmmQ6-41" value="aplicativo: vecino" style="swimlane;whiteSpace=wrap;html=1;" parent="1" vertex="1">
          <mxGeometry x="160" y="40" width="400" height="200" as="geometry" />
        </mxCell>
        <mxCell id="rcJcJloOi9SXId4dmmQ6-44" value="" style="edgeStyle=orthogonalEdgeStyle;rounded=0;orthogonalLoop=1;jettySize=auto;html=1;startArrow=classic;startFill=1;" parent="rcJcJloOi9SXId4dmmQ6-41" source="rcJcJloOi9SXId4dmmQ6-42" target="rcJcJloOi9SXId4dmmQ6-43" edge="1">
          <mxGeometry relative="1" as="geometry" />
        </mxCell>
        <mxCell id="rcJcJloOi9SXId4dmmQ6-42" value="interfaz serenazgo" style="rounded=0;whiteSpace=wrap;html=1;fillColor=#d5e8d4;strokeColor=#82b366;" parent="rcJcJloOi9SXId4dmmQ6-41" vertex="1">
          <mxGeometry x="40" y="40" width="80" height="40" as="geometry" />
        </mxCell>
        <mxCell id="rcJcJloOi9SXId4dmmQ6-46" value="" style="edgeStyle=orthogonalEdgeStyle;rounded=0;orthogonalLoop=1;jettySize=auto;html=1;startArrow=classic;startFill=1;" parent="rcJcJloOi9SXId4dmmQ6-41" source="rcJcJloOi9SXId4dmmQ6-43" target="rcJcJloOi9SXId4dmmQ6-45" edge="1">
          <mxGeometry relative="1" as="geometry" />
        </mxCell>
        <mxCell id="rcJcJloOi9SXId4dmmQ6-58" style="edgeStyle=orthogonalEdgeStyle;rounded=0;orthogonalLoop=1;jettySize=auto;html=1;" parent="rcJcJloOi9SXId4dmmQ6-41" source="rcJcJloOi9SXId4dmmQ6-43" target="rcJcJloOi9SXId4dmmQ6-57" edge="1">
          <mxGeometry relative="1" as="geometry" />
        </mxCell>
        <mxCell id="rcJcJloOi9SXId4dmmQ6-43" value="notificador" style="rounded=0;whiteSpace=wrap;html=1;fillColor=#dae8fc;strokeColor=#6c8ebf;" parent="rcJcJloOi9SXId4dmmQ6-41" vertex="1">
          <mxGeometry x="160" y="40" width="80" height="40" as="geometry" />
        </mxCell>
        <mxCell id="rcJcJloOi9SXId4dmmQ6-45" value="interfaz cliente" style="rounded=0;whiteSpace=wrap;html=1;fillColor=#fff2cc;strokeColor=#d6b656;" parent="rcJcJloOi9SXId4dmmQ6-41" vertex="1">
          <mxGeometry x="280" y="40" width="80" height="40" as="geometry" />
        </mxCell>
        <mxCell id="rcJcJloOi9SXId4dmmQ6-57" value="registro" style="strokeWidth=2;html=1;shape=mxgraph.flowchart.database;whiteSpace=wrap;fillColor=#e1d5e7;strokeColor=#9673a6;" parent="rcJcJloOi9SXId4dmmQ6-41" vertex="1">
          <mxGeometry x="160" y="120" width="80" height="40" as="geometry" />
        </mxCell>
        <mxCell id="rcJcJloOi9SXId4dmmQ6-48" style="edgeStyle=orthogonalEdgeStyle;rounded=0;orthogonalLoop=1;jettySize=auto;html=1;" parent="1" source="rcJcJloOi9SXId4dmmQ6-47" target="rcJcJloOi9SXId4dmmQ6-41" edge="1">
          <mxGeometry relative="1" as="geometry" />
        </mxCell>
        <mxCell id="rcJcJloOi9SXId4dmmQ6-47" value="serenazgo" style="verticalLabelPosition=bottom;sketch=0;html=1;fillColor=#282828;strokeColor=none;verticalAlign=top;pointerEvents=1;align=center;shape=mxgraph.cisco_safe.people_places_things_icons.icon1;" parent="1" vertex="1">
          <mxGeometry x="30" y="100" width="46.5" height="50" as="geometry" />
        </mxCell>
        <mxCell id="rcJcJloOi9SXId4dmmQ6-56" value="&lt;div&gt;Como primer alcance se podria proponer lo siguiente:&lt;/div&gt;&lt;div&gt;&lt;ul&gt;&lt;li&gt;nombre del aplicativo &quot;vecino&quot;&lt;/li&gt;&lt;li&gt;Desarrollo de interfaz grafica para que el vecino notifique de algun incidente&lt;/li&gt;&lt;li&gt;Registro y almacenamiento de las notificaciones&lt;/li&gt;&lt;li&gt;Interfaz para serenazgo&lt;/li&gt;&lt;li&gt;El cliente hara llegar su notificacion a traves de un form&lt;/li&gt;&lt;li&gt;El despliegue se hara en la nube&lt;/li&gt;&lt;li&gt;Sistema de autentificacion para los serenazgos&lt;/li&gt;&lt;/ul&gt;&lt;/div&gt;" style="text;html=1;align=left;verticalAlign=middle;resizable=0;points=[];autosize=1;strokeColor=none;fillColor=none;" parent="1" vertex="1">
          <mxGeometry x="760" y="220" width="470" height="150" as="geometry" />
        </mxCell>
        <mxCell id="HjE2S8ZvpKFxGUU12qkj-8" value="&lt;h1&gt;Product backlog&lt;/h1&gt;" style="text;html=1;strokeColor=none;fillColor=none;spacing=5;spacingTop=-20;whiteSpace=wrap;overflow=hidden;rounded=0;" parent="1" vertex="1">
          <mxGeometry x="330" y="630" width="200" height="120" as="geometry" />
        </mxCell>
        <mxCell id="HjE2S8ZvpKFxGUU12qkj-11" value="&lt;h1&gt;Sprint backlog&lt;/h1&gt;" style="text;html=1;strokeColor=none;fillColor=none;spacing=5;spacingTop=-20;whiteSpace=wrap;overflow=hidden;rounded=0;" parent="1" vertex="1">
          <mxGeometry x="970" y="530" width="200" height="120" as="geometry" />
        </mxCell>
        <mxCell id="HjE2S8ZvpKFxGUU12qkj-13" value="&lt;div style=&quot;text-align: left;&quot;&gt;Conceptos&lt;/div&gt;&lt;ul style=&quot;border-color: var(--border-color); text-align: left;&quot;&gt;&lt;li&gt;&lt;span style=&quot;background-color: initial;&quot;&gt;serenazgo: es enviado por la central a atender la emergencia&lt;/span&gt;&lt;br&gt;&lt;/li&gt;&lt;li&gt;&lt;span style=&quot;background-color: initial;&quot;&gt;central: recibe la llamada y envia al sereno disponible a atender la emergencia&lt;/span&gt;&lt;br&gt;&lt;/li&gt;&lt;li&gt;&lt;span style=&quot;background-color: initial;&quot;&gt;vecino: es quien reporta el incidente&lt;/span&gt;&lt;br&gt;&lt;/li&gt;&lt;li&gt;&lt;span style=&quot;background-color: initial;&quot;&gt;infractor: es quien comete un delito, lo cual incita al vecino a notificar a la central&lt;/span&gt;&lt;br&gt;&lt;/li&gt;&lt;li&gt;&lt;span style=&quot;background-color: initial;&quot;&gt;municipalidad&lt;/span&gt;&lt;br&gt;&lt;/li&gt;&lt;li&gt;infracciones&lt;/li&gt;&lt;/ul&gt;&lt;div style=&quot;text-align: left;&quot;&gt;&lt;span style=&quot;background-color: initial;&quot;&gt;Funcionamiento actual:&lt;/span&gt;&lt;/div&gt;&lt;div style=&quot;text-align: left;&quot;&gt;&lt;span style=&quot;background-color: initial;&quot;&gt;el vecino notifica que un infractor esta cometiendo un delito. Esta notificacion se realizar por llamada. La central recibe la llamada y verifica que sereno se encuentra disponible. De acuerdo a los datos brindados por el vecino determina si es que se requiere enviar a la policia o no. El serenazgo se desplaza hasta la zona y atiende el incidente.&amp;nbsp;&lt;/span&gt;&lt;/div&gt;" style="rounded=0;whiteSpace=wrap;html=1;" parent="1" vertex="1">
          <mxGeometry x="-160" y="680" width="360" height="280" as="geometry" />
        </mxCell>
        <mxCell id="HjE2S8ZvpKFxGUU12qkj-19" value="Sprint 1 - 1 semana" style="swimlane;horizontal=0;whiteSpace=wrap;html=1;" parent="1" vertex="1">
          <mxGeometry x="640" y="680" width="960" height="200" as="geometry" />
        </mxCell>
        <mxCell id="HjE2S8ZvpKFxGUU12qkj-26" value="&lt;b&gt;como&lt;/b&gt; municipalidad&lt;br&gt;&lt;b&gt;quiero&lt;/b&gt; que la app pueda ser instalada en el celular&lt;br&gt;&lt;b&gt;para&lt;/b&gt; que cualquier vecino pueda instalarlo" style="rounded=0;whiteSpace=wrap;html=1;align=left;fillColor=#ffe6cc;strokeColor=#d79b00;" parent="HjE2S8ZvpKFxGUU12qkj-19" vertex="1">
          <mxGeometry x="440" y="40" width="160" height="120" as="geometry" />
        </mxCell>
        <mxCell id="HjE2S8ZvpKFxGUU12qkj-1" value="&lt;b&gt;como&lt;/b&gt; municipalidad&lt;br&gt;&lt;b&gt;quiero&lt;/b&gt; que mis vecinos puedan reportar algun acto criminal inmediatamente&lt;br&gt;&lt;b&gt;para&lt;/b&gt; que se sientan mas seguro&lt;br&gt;&lt;i&gt;backend, frontend&lt;/i&gt;" style="rounded=0;whiteSpace=wrap;html=1;align=left;fillColor=#ffe6cc;strokeColor=#d79b00;" parent="HjE2S8ZvpKFxGUU12qkj-19" vertex="1">
          <mxGeometry x="270" y="40" width="160" height="120" as="geometry" />
        </mxCell>
        <mxCell id="HjE2S8ZvpKFxGUU12qkj-105" value="&lt;b&gt;como&lt;/b&gt; central&lt;br&gt;&lt;b&gt;quiero&lt;/b&gt;&amp;nbsp;poder usar la app para asignar a los serenazgos&lt;br&gt;&lt;b&gt;para&lt;/b&gt; atender a los vecinos" style="rounded=0;whiteSpace=wrap;html=1;align=left;fillColor=#ffe6cc;strokeColor=#d79b00;" parent="HjE2S8ZvpKFxGUU12qkj-19" vertex="1">
          <mxGeometry x="610" y="40" width="160" height="120" as="geometry" />
        </mxCell>
        <mxCell id="HjE2S8ZvpKFxGUU12qkj-20" value="Sprint 1 - 2 semanas" style="swimlane;horizontal=0;whiteSpace=wrap;html=1;" parent="1" vertex="1">
          <mxGeometry x="640" y="880" width="960" height="200" as="geometry" />
        </mxCell>
        <mxCell id="HjE2S8ZvpKFxGUU12qkj-25" value="&lt;b&gt;como&lt;/b&gt; vecino&lt;br&gt;&lt;b&gt;quiero&lt;/b&gt; loggearme inmediatamente al aplicativo&lt;br&gt;&lt;b&gt;para&lt;/b&gt; poder pedir ayuda de manera rapida" style="rounded=0;whiteSpace=wrap;html=1;align=left;fillColor=#ffe6cc;strokeColor=#d79b00;" parent="HjE2S8ZvpKFxGUU12qkj-20" vertex="1">
          <mxGeometry x="210" y="40" width="160" height="120" as="geometry" />
        </mxCell>
        <mxCell id="HjE2S8ZvpKFxGUU12qkj-24" value="&lt;b&gt;como&lt;/b&gt; vecino&lt;br&gt;&lt;b&gt;quiero&lt;/b&gt;&amp;nbsp;ver que tan lejos se encuentra el serenazgo asignado&lt;br&gt;&lt;b&gt;para&lt;/b&gt; que me sienta mas seguro" style="rounded=0;whiteSpace=wrap;html=1;align=left;fillColor=#ffe6cc;strokeColor=#d79b00;" parent="HjE2S8ZvpKFxGUU12qkj-20" vertex="1">
          <mxGeometry x="40" y="40" width="160" height="120" as="geometry" />
        </mxCell>
        <mxCell id="HjE2S8ZvpKFxGUU12qkj-21" value="Sprint 1 - 4 semanas" style="swimlane;horizontal=0;whiteSpace=wrap;html=1;" parent="1" vertex="1">
          <mxGeometry x="640" y="1080" width="960" height="200" as="geometry" />
        </mxCell>
        <mxCell id="HjE2S8ZvpKFxGUU12qkj-15" value="&lt;b&gt;como&lt;/b&gt; central&lt;br&gt;&lt;b&gt;quiero&lt;/b&gt;&amp;nbsp;que el aplicativo este desplegado en la nube&lt;br&gt;&lt;b&gt;para&lt;/b&gt; evitar tener que comprar servidores" style="rounded=0;whiteSpace=wrap;html=1;align=left;fillColor=#ffe6cc;strokeColor=#d79b00;" parent="HjE2S8ZvpKFxGUU12qkj-21" vertex="1">
          <mxGeometry x="260" y="40" width="160" height="120" as="geometry" />
        </mxCell>
        <mxCell id="HjE2S8ZvpKFxGUU12qkj-102" value="&lt;b&gt;como&lt;/b&gt; central&lt;br&gt;&lt;b&gt;quiero&lt;/b&gt; que segun la descripcion entregada por el cliente se de aviso a la policia de manera automatica&lt;br&gt;&lt;b&gt;para&lt;/b&gt; que acelerar nuestra gestion" style="rounded=0;whiteSpace=wrap;html=1;align=left;fillColor=#ffe6cc;strokeColor=#d79b00;" parent="HjE2S8ZvpKFxGUU12qkj-21" vertex="1">
          <mxGeometry x="600" y="40" width="160" height="120" as="geometry" />
        </mxCell>
        <mxCell id="HjE2S8ZvpKFxGUU12qkj-86" style="rounded=0;orthogonalLoop=1;jettySize=auto;html=1;edgeStyle=orthogonalEdgeStyle;curved=1;" parent="1" source="HjE2S8ZvpKFxGUU12qkj-85" target="HjE2S8ZvpKFxGUU12qkj-1" edge="1">
          <mxGeometry relative="1" as="geometry" />
        </mxCell>
        <mxCell id="HjE2S8ZvpKFxGUU12qkj-100" style="edgeStyle=orthogonalEdgeStyle;rounded=0;orthogonalLoop=1;jettySize=auto;html=1;curved=1;" parent="1" source="HjE2S8ZvpKFxGUU12qkj-85" target="HjE2S8ZvpKFxGUU12qkj-25" edge="1">
          <mxGeometry relative="1" as="geometry" />
        </mxCell>
        <mxCell id="HjE2S8ZvpKFxGUU12qkj-85" value="&lt;span style=&quot;background-color: initial;&quot;&gt;El acceso al aplicativo debe ser rapido ya que en una emergencia el vecino necesita solicitar ayuda en el menor tiempo posible&lt;/span&gt;" style="rounded=0;whiteSpace=wrap;html=1;align=left;" parent="1" vertex="1">
          <mxGeometry x="240" y="680" width="360" height="40" as="geometry" />
        </mxCell>
        <mxCell id="HjE2S8ZvpKFxGUU12qkj-95" style="edgeStyle=orthogonalEdgeStyle;rounded=0;orthogonalLoop=1;jettySize=auto;html=1;curved=1;" parent="1" source="HjE2S8ZvpKFxGUU12qkj-87" target="HjE2S8ZvpKFxGUU12qkj-26" edge="1">
          <mxGeometry relative="1" as="geometry" />
        </mxCell>
        <mxCell id="HjE2S8ZvpKFxGUU12qkj-87" value="El fin del aplicativo es hacer que nuestro serenazgo atienda mas rapido a los vecinos" style="rounded=0;whiteSpace=wrap;html=1;align=left;" parent="1" vertex="1">
          <mxGeometry x="240" y="720" width="360" height="40" as="geometry" />
        </mxCell>
        <mxCell id="HjE2S8ZvpKFxGUU12qkj-103" style="edgeStyle=orthogonalEdgeStyle;rounded=0;orthogonalLoop=1;jettySize=auto;html=1;curved=1;" parent="1" source="HjE2S8ZvpKFxGUU12qkj-88" target="HjE2S8ZvpKFxGUU12qkj-102" edge="1">
          <mxGeometry relative="1" as="geometry" />
        </mxCell>
        <mxCell id="HjE2S8ZvpKFxGUU12qkj-88" value="&lt;div&gt;ser capaz de determinar si se requiere de policia&lt;/div&gt;" style="rounded=0;whiteSpace=wrap;html=1;align=left;" parent="1" vertex="1">
          <mxGeometry x="240" y="760" width="360" height="40" as="geometry" />
        </mxCell>
        <mxCell id="HjE2S8ZvpKFxGUU12qkj-97" style="edgeStyle=orthogonalEdgeStyle;rounded=0;orthogonalLoop=1;jettySize=auto;html=1;curved=1;" parent="1" source="HjE2S8ZvpKFxGUU12qkj-89" target="HjE2S8ZvpKFxGUU12qkj-24" edge="1">
          <mxGeometry relative="1" as="geometry" />
        </mxCell>
        <mxCell id="HjE2S8ZvpKFxGUU12qkj-89" value="&lt;span style=&quot;background-color: initial;&quot;&gt;El vecino deberia ver donde se encuentra el serenazgo&lt;/span&gt;" style="rounded=0;whiteSpace=wrap;html=1;align=left;" parent="1" vertex="1">
          <mxGeometry x="240" y="800" width="360" height="40" as="geometry" />
        </mxCell>
        <mxCell id="HjE2S8ZvpKFxGUU12qkj-90" value="&lt;div&gt;El vecino tiene que saber en tiempo real en cuanto tiempo esta llegando el serenazgo a atender la emergencia&lt;/div&gt;" style="rounded=0;whiteSpace=wrap;html=1;align=left;" parent="1" vertex="1">
          <mxGeometry x="240" y="840" width="360" height="40" as="geometry" />
        </mxCell>
        <mxCell id="HjE2S8ZvpKFxGUU12qkj-96" style="edgeStyle=orthogonalEdgeStyle;rounded=0;orthogonalLoop=1;jettySize=auto;html=1;curved=1;" parent="1" source="HjE2S8ZvpKFxGUU12qkj-24" target="HjE2S8ZvpKFxGUU12qkj-23" edge="1">
          <mxGeometry relative="1" as="geometry" />
        </mxCell>
        <mxCell id="HjE2S8ZvpKFxGUU12qkj-91" value="&lt;span style=&quot;background-color: initial;&quot;&gt;Queremos manejar KPIs:&lt;/span&gt;&lt;br&gt;&lt;ul style=&quot;border-color: var(--border-color);&quot;&gt;&lt;ul style=&quot;border-color: var(--border-color);&quot;&gt;&lt;li style=&quot;border-color: var(--border-color);&quot;&gt;cuantas emergencias se reportaron en el dia&lt;/li&gt;&lt;li style=&quot;border-color: var(--border-color);&quot;&gt;cuantas emergencias se atendieron en el dia&lt;/li&gt;&lt;li style=&quot;border-color: var(--border-color);&quot;&gt;cuantas emergencias requirieron de atencion policial&lt;/li&gt;&lt;/ul&gt;&lt;/ul&gt;" style="rounded=0;whiteSpace=wrap;html=1;align=left;" parent="1" vertex="1">
          <mxGeometry x="240" y="880" width="360" height="100" as="geometry" />
        </mxCell>
        <mxCell id="HjE2S8ZvpKFxGUU12qkj-92" value="&lt;span style=&quot;background-color: initial;&quot;&gt;informar si ya se termino el trabajo&lt;/span&gt;" style="rounded=0;whiteSpace=wrap;html=1;align=left;" parent="1" vertex="1">
          <mxGeometry x="240" y="980" width="360" height="40" as="geometry" />
        </mxCell>
        <mxCell id="HjE2S8ZvpKFxGUU12qkj-93" value="&lt;span style=&quot;background-color: initial;&quot;&gt;Tanto serenazgo como el vecino debe tener acceso al aplicativo via celular&lt;/span&gt;" style="rounded=0;whiteSpace=wrap;html=1;align=left;" parent="1" vertex="1">
          <mxGeometry x="240" y="1020" width="360" height="40" as="geometry" />
        </mxCell>
        <mxCell id="HjE2S8ZvpKFxGUU12qkj-94" value="La central debe notificar a traves del aplicativo a la policia de que se requiere de su presencia" style="rounded=0;whiteSpace=wrap;html=1;align=left;" parent="1" vertex="1">
          <mxGeometry x="240" y="1060" width="360" height="40" as="geometry" />
        </mxCell>
        <mxCell id="HjE2S8ZvpKFxGUU12qkj-99" style="edgeStyle=orthogonalEdgeStyle;rounded=0;orthogonalLoop=1;jettySize=auto;html=1;curved=1;" parent="1" source="HjE2S8ZvpKFxGUU12qkj-98" target="HjE2S8ZvpKFxGUU12qkj-15" edge="1">
          <mxGeometry relative="1" as="geometry" />
        </mxCell>
        <mxCell id="HjE2S8ZvpKFxGUU12qkj-98" value="La idea es gastar la menor cantidad posible de dinero ya que la municipalidad no cuenta con los recursos para mantener un aplicativo muy costoso." style="rounded=0;whiteSpace=wrap;html=1;align=left;" parent="1" vertex="1">
          <mxGeometry x="240" y="1100" width="360" height="40" as="geometry" />
        </mxCell>
        <mxCell id="HjE2S8ZvpKFxGUU12qkj-106" style="edgeStyle=orthogonalEdgeStyle;rounded=0;orthogonalLoop=1;jettySize=auto;html=1;curved=1;" parent="1" source="HjE2S8ZvpKFxGUU12qkj-23" target="HjE2S8ZvpKFxGUU12qkj-105" edge="1">
          <mxGeometry relative="1" as="geometry" />
        </mxCell>
        <mxCell id="HjE2S8ZvpKFxGUU12qkj-104" value="La central ya no usara mas el telefono ni para recibir llamadas de los vecinos ni para asignar a los serenazgos. En su lugar usara la plataforma." style="rounded=0;whiteSpace=wrap;html=1;align=left;" parent="1" vertex="1">
          <mxGeometry x="240" y="1140" width="360" height="40" as="geometry" />
        </mxCell>
        <mxCell id="HjE2S8ZvpKFxGUU12qkj-109" value="&lt;h1&gt;Despliegue&lt;/h1&gt;" style="text;html=1;strokeColor=none;fillColor=none;spacing=5;spacingTop=-20;whiteSpace=wrap;overflow=hidden;rounded=0;" parent="1" vertex="1">
          <mxGeometry x="1440" y="630" width="200" height="120" as="geometry" />
        </mxCell>
        <mxCell id="HjE2S8ZvpKFxGUU12qkj-110" value="&lt;h1&gt;Administrador&lt;/h1&gt;" style="text;html=1;strokeColor=none;fillColor=none;spacing=5;spacingTop=-20;whiteSpace=wrap;overflow=hidden;rounded=0;" parent="1" vertex="1">
          <mxGeometry x="1040" y="630" width="200" height="120" as="geometry" />
        </mxCell>
        <mxCell id="HjE2S8ZvpKFxGUU12qkj-111" value="&lt;h1&gt;Usuario&lt;/h1&gt;" style="text;html=1;strokeColor=none;fillColor=none;spacing=5;spacingTop=-20;whiteSpace=wrap;overflow=hidden;rounded=0;" parent="1" vertex="1">
          <mxGeometry x="700" y="630" width="200" height="120" as="geometry" />
        </mxCell>
        <mxCell id="HjE2S8ZvpKFxGUU12qkj-112" value="" style="edgeStyle=orthogonalEdgeStyle;rounded=0;orthogonalLoop=1;jettySize=auto;html=1;curved=1;" parent="1" source="HjE2S8ZvpKFxGUU12qkj-91" target="HjE2S8ZvpKFxGUU12qkj-24" edge="1">
          <mxGeometry relative="1" as="geometry">
            <mxPoint x="600" y="930" as="sourcePoint" />
            <mxPoint x="1020" y="1130" as="targetPoint" />
          </mxGeometry>
        </mxCell>
        <mxCell id="HjE2S8ZvpKFxGUU12qkj-113" value="" style="edgeStyle=orthogonalEdgeStyle;rounded=0;orthogonalLoop=1;jettySize=auto;html=1;curved=1;" parent="1" source="HjE2S8ZvpKFxGUU12qkj-104" target="HjE2S8ZvpKFxGUU12qkj-23" edge="1">
          <mxGeometry relative="1" as="geometry">
            <mxPoint x="600" y="1160" as="sourcePoint" />
            <mxPoint x="1370" y="830" as="targetPoint" />
          </mxGeometry>
        </mxCell>
        <mxCell id="HjE2S8ZvpKFxGUU12qkj-23" value="&lt;b&gt;como&lt;/b&gt;&amp;nbsp;central&lt;br&gt;&lt;b&gt;quiero&lt;/b&gt; ver cuantas infracciones se cometerion cierto dia&lt;br&gt;&lt;b&gt;para&lt;/b&gt;&amp;nbsp;poder tener una idea de la delincuencia en el distrito" style="rounded=0;whiteSpace=wrap;html=1;align=left;fillColor=#ffe6cc;strokeColor=#d79b00;" parent="1" vertex="1">
          <mxGeometry x="1070" y="1120" width="160" height="120" as="geometry" />
        </mxCell>
        <mxCell id="7CWXTSbd9xAtPU0QStJo-1" value="&lt;ul&gt;&lt;li&gt;What is the desired outcome?&amp;nbsp;&lt;/li&gt;&lt;/ul&gt;&lt;div&gt;Un aplicativo que ayude a los vecino a reportar inffracciones&lt;/div&gt;&lt;ul&gt;&lt;li&gt;Who is this for?&amp;nbsp;&lt;/li&gt;&lt;/ul&gt;&lt;div&gt;Para la municipalidad del Callao&lt;/div&gt;&lt;ul&gt;&lt;li&gt;What value will this create?&amp;nbsp;&lt;/li&gt;&lt;/ul&gt;&lt;div&gt;Seguridad para los vecinos&lt;/div&gt;&lt;ul&gt;&lt;li&gt;How much effort will it take?&lt;/li&gt;&lt;/ul&gt;&lt;div&gt;Tomara 6 meses&lt;/div&gt;&lt;ul&gt;&lt;li&gt;What problem are you trying to solve?&lt;br&gt;&lt;/li&gt;&lt;/ul&gt;&lt;div&gt;Disminuir la delincuencia en el Callao&lt;/div&gt;" style="text;html=1;align=left;verticalAlign=middle;resizable=0;points=[];autosize=1;strokeColor=none;fillColor=none;" parent="1" vertex="1">
          <mxGeometry x="-410" y="220" width="340" height="280" as="geometry" />
        </mxCell>
        <mxCell id="f2tMmFMn8u4zpyXFYxsQ-2" value="&lt;ul&gt;&lt;li&gt;Developer team: nombre&lt;/li&gt;&lt;ul&gt;&lt;li&gt;backend - 5000&lt;/li&gt;&lt;li&gt;movil developer - 5000&lt;/li&gt;&lt;li&gt;devops / cloud engineer - 5000&lt;/li&gt;&lt;li&gt;UX designer - 4000&lt;/li&gt;&lt;li&gt;QA / tester - 5000&lt;/li&gt;&lt;/ul&gt;&lt;li&gt;&lt;span style=&quot;background-color: initial;&quot;&gt;scrum master - 5000&lt;/span&gt;&lt;/li&gt;&lt;li&gt;product owner - 5000&lt;/li&gt;&lt;/ul&gt;&lt;span style=&quot;background-color: initial;&quot;&gt;&lt;/span&gt;" style="text;html=1;strokeColor=none;fillColor=none;align=left;verticalAlign=middle;whiteSpace=wrap;rounded=0;" parent="1" vertex="1">
          <mxGeometry x="-680" y="640" width="260" height="150" as="geometry" />
        </mxCell>
        <mxCell id="sjNVkHmS2LZbyqBBIwIx-2" value="scrum owner&lt;br&gt;Josue" style="shape=umlActor;verticalLabelPosition=bottom;verticalAlign=top;html=1;outlineConnect=0;fillColor=#fff2cc;strokeColor=#d6b656;" vertex="1" parent="1">
          <mxGeometry x="-320" y="1560" width="30" height="60" as="geometry" />
        </mxCell>
        <mxCell id="sjNVkHmS2LZbyqBBIwIx-3" value="scrum team&lt;br&gt;Josue&lt;br&gt;Juan" style="shape=umlActor;verticalLabelPosition=bottom;verticalAlign=top;html=1;outlineConnect=0;fillColor=#f8cecc;strokeColor=#b85450;" vertex="1" parent="1">
          <mxGeometry x="-80" y="1560" width="30" height="60" as="geometry" />
        </mxCell>
        <mxCell id="sjNVkHmS2LZbyqBBIwIx-4" value="scrum master&lt;br&gt;Juan" style="shape=umlActor;verticalLabelPosition=bottom;verticalAlign=top;html=1;outlineConnect=0;fillColor=#dae8fc;strokeColor=#6c8ebf;" vertex="1" parent="1">
          <mxGeometry x="-200" y="1560" width="30" height="60" as="geometry" />
        </mxCell>
        <mxCell id="sjNVkHmS2LZbyqBBIwIx-10" value="encargado de tener las historias de usuario de cliente y levantar los requerimiento" style="text;html=1;strokeColor=none;fillColor=none;align=center;verticalAlign=middle;whiteSpace=wrap;rounded=0;" vertex="1" parent="1">
          <mxGeometry x="-360" y="1690" width="110" height="90" as="geometry" />
        </mxCell>
        <mxCell id="sjNVkHmS2LZbyqBBIwIx-11" value="conciliador en las actividades a realizar por el development team. Ayuda a definir como hacer el producto" style="text;html=1;strokeColor=none;fillColor=none;align=center;verticalAlign=middle;whiteSpace=wrap;rounded=0;" vertex="1" parent="1">
          <mxGeometry x="-240" y="1690" width="110" height="90" as="geometry" />
        </mxCell>
        <mxCell id="sjNVkHmS2LZbyqBBIwIx-12" value="Desarrollan el proyecto" style="text;html=1;strokeColor=none;fillColor=none;align=center;verticalAlign=middle;whiteSpace=wrap;rounded=0;" vertex="1" parent="1">
          <mxGeometry x="-120" y="1690" width="110" height="90" as="geometry" />
        </mxCell>
        <mxCell id="sjNVkHmS2LZbyqBBIwIx-14" value="" style="shape=image;verticalLabelPosition=bottom;labelBackgroundColor=default;verticalAlign=top;aspect=fixed;imageAspect=0;image=data:image/png,iVBORw0KGgoAAAANSUhEUgAAAcgAAAByCAYAAADXh0FNAAAABHNCSVQICAgIfAhkiAAAABl0RVh0U29mdHdhcmUAZ25vbWUtc2NyZWVuc2hvdO8Dvz4AAAAmdEVYdENyZWF0aW9uIFRpbWUAc+FiIDIwIG1heSAyMDIzIDEwOjM3OjI0aDkwNQAAIABJREFUeJzt3Xd4VFX6wPHvvdMy6b2ThAQSIITQO4goWHEtq2sDLKyK2HsX+65dbKjYGygiKkWK9F5DIAmEFEgjPZlMr/f3R0IkzKi7LoTg73yeh0eZO5d75mZy31Pec46kKIqCIAiCIAgdyKe6AIIgCILQFYkAKQiCIAg+iAApCIIgCD6IACkIgiAIPogAKQiCIAg+iAApCIIgCD6IACkIgiAIPogAKQiCIAg+iAApCIIgCD6IACkIgiAIPogAKQiCIAg+iAApCIIgCD6IACkIgiAIPogAKQiCIAg+iAApCIIgCD6IACkIgiAIPogAKQiCIAg+qE/2BcrLy/ni08/I2b2b6JgYrvjHFQwfORKNRuP1XpPRxOOPPorB0AxIBAYEMGLUKM6/4HxCQkNPdlEFQRAEod1JbUEaW1q47667+fGHHxg77gxqaqq554672LF1m8/3O5wOtmzcxJHKIwweMhiX281Tjz/B+7PfO5nFFARBEAQvJ7UFaWhpISwsjAsmTWLKdVNJSkrm/rvvoaioiBGjR/3meUnJSdx6222YzWYuv+RS1q5Zw62338ajDz3MkaoqklNSMJlNPPLoo3w050O2bd1KWFgYU6+/nvFnnwVAzu7dzHnvfYqLi+mblcX0GbeS1qMH5eXlzH77HXbu2EFqWho3T7+FftnZNDc38/67s1m3di3+/v5ceNFFXP6PK9BoNHz/3Xd8O+8bXC4X488+m2snTyY0LJSP5sxh4/oNvPjqK0RFRZ3MWykIgiB0spPagkxMTGT2nA+Yct1U7HY7G9atR+fnR1rPHv/R+cYWIyaTCZ2fHwB1tbXsy92Lw25n7Bln8MKzz7Pg2/lccuml+On1PHz/A+zetYv9BQXcetPNNDY2Mn3GDPL37ePeO++mpLiEO2fcxo5t25h28004bHZun34rpaWlfPrxx3z1+RdccOGFDBk2lDffeINtW7eydPESXnjmOdIzMhhzxljemfUmc95/HwCDoYX6+nrcbvdJu4eCIAjCqXHSxyABrBYLn3z0MSuWLeOqydcweMiQ333/xvUbuPaqqyg/XI7JaOTmW25BlltjeWhYKPc/9CAqtZq335jFkKFDmXL9dYweO4ZrrriShd8vJDU1FUOzgauvvYZJf/sbSclJlJaWUlpawr7cvfQfMIAjlVUEBgdRX19P4YEDREZGIcsypaWljD/7LC657DISExO5Zdo/CQ0N5eHHHgVg+c/L2LB+Aw88/BD33n8f995/30m/f4IgCELnO+kB0m6388rLr/Dt13O5afotTLv5JrRa7e+eEx0TzdlnTyQwKJCMXhmkZ2Tg8XgA0Pn5odXpcDgcuN0edH46JElCq9Uiq1TYbFacTgeSJKHRapEkiaTkZEJDQzl06DAA/oEBBAUH03/AAAYOGkR6ejpnjh9PSkoK69ev490336Kuro4nnnoKh8OBWqNGrVajKAo6nQ6Xy3myb5sgCIJwip3ULlaXy8Wbr73Bl59+Ru/MPvTO7MOObdspLiqisaGRRx9+mHVr1qIoSofzeqanc92N1/P3Ky4nq18/dDqd178dFhZGSvcUdu7ayfq1a5k3dy42m40JEybQLzsbtVrNL8tXsGvnTu689TZunHo9oaGhxMXF4bDbGTBwAABrV6/GZrPz/uz3+Pijjzhz/HiunjKZxoZGWowtnHnWeGpra/l23jyW//wzxQeL6NevH4qi8N2383nkwYdobm4+mbdREARBOAVOaguypaWFBfPn43K52Ll9BzdvnwbAlddczQ3/nMa61WtITExkzBlj/+t/W6/Xc/9DD/H0k09y54zbUalUTL9tBmee1Zqk8+SzT/PGy6+yYvlyomNjePKZp8jun83Lr7/G00/OZPJVVxPgH8DUG64nNS2VwMC/tY5NTr0elVrNmLFjGDlqFOHh4RypOsKLz/8LWZYZOnI4N8+4FUVRyN2zh9W/rOLW22YQKqahCIIg/KVIyvHNt05ks9nwa0vA+bMURcFoNKLX673mVrpdbgwtBkJCQlCpVB3OMRgM+Pv7e3X3WsxmFCAgIKDD63a7HZfL1eF1l8uF2+322cIVBEEQTm+nNEAKgiAIQlcllpoTBEEQBB86ZZrHsZYsWdLZlxQEQRCE/5roYhUEQRAEH0QXqyAIgiD4IAKkIAiCIPggAqQgCIIg+CACpCAIgiD4IAKkIAiCIPggAqQgCIIg+CACpCAIgiD4IAKkIAiCIPjQ6Svp/CfK6qws3V5zqovRpWhUMteelYhW7V2naTI5mbu2grYtMwVAkiWuHpdIaID3V9zm9DB3bQVNJrGv57EuHhlH92h/r9c9HoUl22sorjSdglJ1XSOyIhna0/cuPlsLGtm0t76TS9S19UgKYtLwuFNdjP9KlwyQCRF+VDfYWbW5Go9HLPRzlMejcON5yUjHvR4aqEGtUfPp90U4HSJKHnW4yszMqb3Qa1UdXvfTyMRH6pkzrwizWQTJozbsqOWd+wYSE9pxdxpZlkiND2DWZ/tpaLCdotJ1PfMXH2b240PITAn2OtY9LoB/vb+XQ6XGU1CyLkoC3SODmTA4Fun4h1gXpZo5c+bMU12I48mSxOCMUA5UmKmqtZ7q4nQZhYeNREXr6RnXcSsuCRiQGkyTxUV+seHUFK4Lqqi2YJMUhvcK9zqWFhuAf7CGbXsb8LhFJQyg2eCgtMHGxCExyMc9waJCdKT3CGH97jrsdvcpKmHX4nR62Hu4hfNHx6FVdezZCfBTM2ZwDBtz6zE0O05RCbuenANNjB4aQ1ig9o/f3AV0yQAJoFXLZPUIZVNeA0aT61QXp0twuRQ27KonMz2UhIiO+2hKkkRWagi7Sw3Uilo+0Nri3nugmZBwP3p1C/R66GckBnHE6KCwtAVEjAQFyitMNNjdDOsdjlrV8X4lROiR/VTs2NeAInp2AGhstLO1yMD4QdH4HddTEeyvIS4+gDVba3A5Rc8OgMXsYuXOWs4cGkNIgOaPTzjFumyABAjSqxmYEcbm/CbMFhEkj8orbeHMwdH4H/cLqdPInJEdxe4SESSPlVdsoG/PUOLDO1YqVLLEiMwIKppsFB0WXWFHFR9qISzCj77HdR1KEmSmBCP7qdiZ1ygqFW3q66yYnB7GZEd5HUuO9iclNYQ1W6vxuMQNA7CanBRXmzl7WCwaHzkVXUmXDpAA4UFawsJ1bNnbiFt0hQFgNDlZn9fI2P6RBPh1HEb206pI6xbI2px60RXWxu7wsGZPAyOyIokI7ti1o1ZJ9E0LYceBJhoa7aeohF2L26OwZW8D6WkhJEX7dxgvkmWJPinBHK61UFomknaOKig24B+iJTM5GFn+9YZJkkRKbABOYNe+hlNXwC6mqspMrc3F8MyILh0ku3yABOge409khB9b9zWKpJ02RqOTmhYn47IjkY7rOowO0ZGdEcaq3XUiaaeN0+Emr8zIGf0j8dd1bHkH+qkZmhXOmj0NmIwiaQdAcStsL2hiUJ9wr6QdjUpmUJ9wckqN1NZaTlEJuxgFdu5rJCEhgPTEwA6HJAn69gilxuzk4EGRI3BU4cFmFK3M4N7hXsMfXcVpESAlSSI1NgCD1U1BScupLk6XcbjSjBXonxaCSu74BYsJ1REYoGHz3gbEjp+tGprslNTbGNU3Ap2mY601xF9Dz6RA1u6uxyFa3gBYrS5ySo2cMTCKwON6KvRaFUMzw9m4rx6DQSShAHjcCrsONjE8O5LI4OMqFWqZMdlR5JQaqKoyn6ISdj15Rc107x5Ealxgl8xsPS0CJLR27fRNDaa8yc7hSvEFOyq/yEBQkJa+3b1TzXskBOBWy+zZ33QKStY1VVSZaba5Gd4n3KtSERfuR2yMP2u214hKRZvmJjt5h1sYOyDaa7pMoL+ajNQQft5cjdsleioA7FY363PqGZYdSURQx+58lSyR3SuMpduqsZtFTgWA26WwYWcdPXqEkBIb8McndLLTJkBCa2brsF5h5JS0UNcoklCO2lfaQt+0EGLD/TrMkVTJEkPSQylvtFNSLpJQjioqNxEa5kfvboEduqdlSSI9IRBJpyKnoEl057epqbNidnu8KhUSrZWK1JQgNu6qwykyNQEwm10crrVy5uAYr4U9QgI0jBsWy6qt1VhEkATA5fSwv6SFkYOiu1xm62kVIAG0GpnM1GBW7q4TXWFtnE4P63Mb6NszlNgwndfxrNQQNhxoEvOx2igehZ37m4iM9CcjMdBr4YVeyUEcarRRIjJb2+0vacGCwrBe3uNF3aL88WhkduaKJJSjqmosFFSZGT8oGo3KO0jGxvizcn3VKSpd12MwONia38j44bFeiYen0mkXIAHCAjUM7BXK+j0N2ESQBMDh8FBcZWZs/0ivrjB/nYoJg2JYt7cBQ4sIkgBut0LBoRb69wojOqRjpUKrlhnXP5KdJS3UiCQUABQFCktbiI/zTkKRZYkBPUOpMjkpOdQiuqfbVFZZ8GgkhvYO71AJk4C0hEC0YRpyRHZ+u+YmO+WNNsYNikat6hqZradlgASICNYREqJlY45Y7/CohmY7u4oNjBsY5ZWE4qeV6dEtiOXbqsXKMW0sVhdbCxoZmR1J6HFdOypZYkBGGOty6zGKzFagdbxoZ0ETvXuGkhip73BMkiQGZ4Sxr9xE1RGRI3BUQbGBgDAdWT6Wo+uXGkqDzUlegcgROKq80kyDw80YH9n5p8JpGyAlCdITA3GrJfKLW8R4UZuGJjsGm5sRmd5dYXHhfiR2C2JrbgNOkVQBgMnsorDSzJh+kV4roYQEaOjXK5y1u2qxWkVPBYDd7mZ7fiMjsiMJPy4JRaeRGZIZzvrcBpHZ2sbtUtiWU0+vnqEkx3RcCF6WJAZmhLOrxEB1teipgNbhj4L9Ta2VitSQUx4kT9sAeVRWSjBVTXaKy8Wk5aMOVZlxyBKDeoZ6ja+lxfqDRmZnfpNYCaVNXaONsmY7Z/aP8qpURIdoSYwLYEOOSEI5ymx1sa/cyLnDvJNQAv3UDOwdzsY99ZjEQvBA65KHOQebGT8sliB9x/E1rVrmzMEx7DrQTI1Yd7pdXmETfXqHkxil/+M3n0SnfYBUyRL900PJKTZQ3yRWQoHWX8jcA83EROvpmeCdhJKZEsShBhuHK81ivIjW8bXDFSbsEgzs6T2ntHtsAHa1RO5+kdl6VH29jfwqC2f0j/Tqzo8I1hIRo2fT7jqxBmkbk8nJyt11nDUkxitI+mlV9EwLYfXWamw20VMB4LB7WLHlCMMHRhET5vfHJ5wkp32AhNaunWGZ4ew8YKBRdO20yytpYXBmuM/5WKP7RlBcbeawmLTc7uBhIzEx/qQneK+EMqBHKNa2iodoebc6UmPBKUuM6ONrtxR/IqP0bNpTL8a825hNTsoabZw7LMZ79atQHYOyI1m5rQaHCJIAuJ0e9pYamDAizivxsLP8JQIktG4vkxQfwMbcBhy/sbyaRiMTGabDbHUhSRAd4YfF7gYFAgI1+GlVhARqsVh/f35SeKiOhCg9BourS+9qYLO7WbWrjpH9IgkL7JiEolZJ9E4JZmNeA8ZjNg5Wa2Tio/UEB2rw91djtXtQPAohwVokqXVHkT8iyRJqtfwfrYwRE+mH3enB41GQZYmYSD0mq4vYKD1WR+u1g4O1qDUy/jo1dkfrwyM0RIckS4S2ra3qdHnaz7fY3H+qZexyKWzaU0+fnqEkRug7rkEqSWR2Dya/wkjlkdbxIkmC2Cg9YSE6QoK0aHSq1qzqLvKV0Khl/APU7b8PwSGt9+pEZU0qCuQeaCY03I9eSUEduqclSSItIZBmq4u8g81/+hrhYToiw/0ICdISEqQlKFDb4fvqi6ySUGtk1BoZnVbVpbrGyypM1NndDO3lvVtKTJgf/kFaNu2qRTmuyIGBGlQauVNb5KFhOhRax1H/iFanOim9K40NdvaUGxnnY7eUzvCXCZDQmoTSIyWYDbkNPn8pAoM0PD+9L8u21qLTqHh2Rhb5FSaam+1MvjgNWSXRKy2YA8W/vZydSiVxw2Vp2DxQecTS5VO0HQ4PRUfMTBgSjfq4rsMQfw3D+0Wybm895rZJyzEJAdx1ZTp+QVqG9o3ggpHxbMitp1+fCFwehZb/YJrIyEHRXHZ2Nwb0CWdvYfPvBtXnZmSTe6iFlhYH/oEaXpjRjyWbq/n3bdlsLmjEanFx7vhEIiL1DO0dTu6B1oy/KRengSwRFq7jglFx7CpopHePECaOTWDXvj+/vJ7Ho7CnyMDIfhFema06jczIfpHsLG6mrs6GWqfi+dv74R/mR1JiIOeMjqPJ6qKmiyRchIRoSU4LpvaIBSS4bUpv8ksMWE/kzjgK7N7fRHr3YFKOS0JRyRIDM8KoNDgoLv0TS0RKMKB/FAP7R3Ht+SlogrTExgWQX9D4u6cNHRZDZLAfDlkiOlzX5RahLywyEBCspX+PUK9jGUlBqAM17Nhd1+H1c8YlEhrnT/mhzpubO3B4DA6HB+N/0Cs36YIUyspMJyX5r7rKTJPFyej+UV7DHydb15mReYIM6RnK5POSeH9BiVfrzmhwYHUpREX44e+voarZwfkjY3mv3MSYzHBWbK7GX6siIT6A5PgAnG6FPXmNDOgTRkCAhgPFBmSNim7RerblNZKZEUqAXk1ZlYkgvZroaD2KG7btqSclOYhgfw0hQWrKK82EhfvhdrrZsrueyDAdfXuH43S62VPQhOJRGJAVgUYlUVjcQmXNiX3A7jvQzMzP9vPo1elea2omR+q5+8p0nnxvH3abG5VK4nCliS+/L0ZC4q7rejNheBwVjVZcLg+pyUGkJAVhs7rZta8BtVoiu084Wq2KvP2N1Dc7CArUsOtgM2pZwulSCAnS0i8zHJUMBQcN1NT9mowQHqhpn/MkSxLhQRqQICJYg0olo1LLRAdraTa5OkwgDtSr0Wlk1m2tZmTfCAZlRXDW0Fje+/bg/1yTPVJj4aEP8nnjtn5Eh3Tsng4P1PD49X248+XdNDbbCQ/SMndRKRaDg77poZw5Jp6mJjuJ8QFY7W6qKkz0yggDIC+vkYZmO/37hhMa7ofF5KSwyEByWjAhAVoqa8yo3Arx3QJRXArbd9XRs2cIGrVMeJiW8jIzIeE61LLE1h21BAVq6NM7DK1GJm9/E3W1VnqlhxEb509ttYXDlSYcNjcajUy/vhEUHzERFeaHocXBkIFROB0ewkJ17NpTR0PDnw8iFrOTmXPyeO+hwaTHd1wuzF+n4oGr0zlSY2Fv3u8HNi8KbNpczdYdtWTe2Z8vfyjBZXHRt1cYUfH+NNTayD/QREyUnp7poTjsbvbmNzJuUDT1zQ7KfinH4ZTo2SeM8CAtwUFaiksMlJYa6dEjhG7dArDZPNQ12ziY33lTLTwehdnzDtKzWxAj+oR36KnQqGVuvKA7h8qMLFle3v66v06F+dihXgnS00KITwlCLUns2F5LULQfidF6AgK0VFWYKCho5IzxiahkieAANSs3HiFEp6ZnRih4FHbsqiM0REdUhB+hkTrqqqxodDLRMXo2bajGYnHhcnkIDtXRLzsClVomb089JpubYYOjkNQyFqOTnTtrGZoVgcXlZsO6I/TLisA/QENZiYGiE7TX6qKV5fRICeaqicleFf2TqWvMxjyBZAmuGJfAlecmeyWnKMAvOfV0i9Yzbkg0izdUMrxXGMnJQTQYWh8Ql4yNJy0hiAtGxlFVZeaSid2ICNZyqMzIJRO60WKwU9/ipKzSxAWj4qiptaLVqrngjERKSo0kxPgzLCuCoVmRZCQGUHrYyDUXpHCkyszofpEEBGu57JwkqiqMuJwKj07rw7jBMYSF6qipszFxbMJJuS8bttXy6c9l+IodY/tG8MCU3sjHdfkoisLiLTWkxfkztn8UPVNDePbmvlRUmokM15GYGMhD1/dp3Wi33Mjl56eg91dzwYg4KivNpMUFkNAtkIsnJmG1OGlotPPUzX3R6f/zellGRhiVNZbfDXoLVpZz75Xp7NrfRFPziWktlJQY+NcX+zH7GA9Kjw/kmelZaP1bW5gDsyIYPDia88clcLDMSFbbPMHmRjv3Xd+bpkYbzU12br+2FyNGxnL2sFjKSlq4YGw8MWE6zhkeh2J1gUth9PBYSg8aSEsI4NxxCZw5IJphmRFUVVp48LremJod9E4NoXt8AGNHx2E2OLA0O7js3GRSEgMZOzSG0iIDZw2PJSU1mMF9I+ifHUnPbkHk5jZw7QUp9OwVztRzk3F5FGTg1n+k/8/3q7nexkNv7qG83jsTMyxQy5M39SX0BGQkZmdFcNGEbhwqaiE7K4LsXmHcc0MfDI12JFkiITaAijorNdUW4uMD6dM9mOHZkWTEB1Jx2Mhl56YQGKDmvHEJlBw0MCoznEGZEf9zuf5bDquLB1/fzfZC78AsSxL3XNuLtD5hv3m+f7CWG6/JoLy4BQ9w3rh4emeEMzIzkqKCJi6c2A0JiaKCJsqrzAzJjMRhdDFyVByHDhoI1qm54tI0eqUEcen5yVSVmXnl/gH4+anx12uYOCa+9TuUFMTz9w/AbnVTXWbkikvSCArXMWlsImVFLYwZHE1giJb6Jjsl+5s558wEgoI0lJe2cN9NfemWHHRC7pfHpTDro3y+X1vZqSMYf7kAedRv1TF25NaTHB/AiIxQDhS3kFduYsKwWBZvq0U5pl9uf4WZyhoLZw+OYUifcC4Zn0hciBanS8Fkc1HXYKPJ7OTgoRYqqkxsz29g+MAoencPIkCvRlEUCg4ZKSk3UVptpaTCRGOzHZ2fmoxuQVw4LpHR/SMI1MiU1JiZ0C+Cc0fFUlhqQOrkboTf4+8n43R5UACn3c2qnXVMuziViBAdbo+HwT2CGZ0dycVnJRKsU6GSJarqrBSXGTlSayVAryEkWEteoYG9B1qnlsRE//qgdHuU9hq0rzHL84a2psC73J4Ox1Wy1B7s05OCKKo0MzA9FHUn7i0ntf3plxpCdmoom/MaWLmmErcH8gubsVpdmB0ecvMa2bOvAYeicPbgaDbva6C4zMjG3NZFLkw2N0XlRsrKjewvNjBsaDSZqSHtyVVb8xvJK2rGaHayv8TAoSNmdBoVefmNJKcEMXJIDPEReqKj/dlb0ERJmZG3v9iPuam1ayw1OYi9BY2UHDayr7SF7J6hmGwecnLq2VNkIDrYe3nCk3GvToT+PUNJiNRz+fnJdI/SExCgYc3OGq65MIWMlCAMLXYaW5w0GxztD1KXW6GgpIWSciMeRSEk0o8j1WYOlZvYcZpO0ndYXfy4spxBQ6MZ2T+CwLbK2v4SA4fKjFitbhRFwWxxcc/kXnw2/yB2q4vCA00MGBLFwH6RxEa0/ty37Gtk//4mZFkit6CRnAONBLZVYgNDtGSlhnDWyFj+dl4yQXoVsgTlFUZKDrdQ32BDo1VhtDiprrYQExvApg1HOFhsYEdhE2lJJyZAnip/uQDpUeCbNZV8/fNhnzUNQ7OdXqkhFJSbsFldLN9Ww4jeYWzd1bHP/+i5RZVmVmyv4Z1vithV3ILT6fZ608A+4QztE8GqTdWUVP3aPerxNRCmQHWzndnzi/lqWTmldTbCA7W89E0R81eU88i16QQEnvgFe0cNjWbquUn4ir3r9jXw4mcFXtmG/gEabjgnie2FBlBA769Gq5F54ZN8qhqsTBgYQ4PRxcJ1lcz6upDCSjNut+I1/ud2efD3VxMQqCEsUE3TMWvCFlVbSItvzRqNjfCjqtnevvO6n15NRIiOmhoLpZUmYiN0qNQyGq1MeoI/RxqsxCUEMmZAJC98nE91k50xw2JPyP1KTQ3hoWt7EeDnnRhQWGXi8Xf3Yrc4UYBPfijhw28KWb+xukMShdnqIjpYiz5Ig3+wlvAANfmHjfRMDGztIjvu4ZGaGMTgzAhWrz/CgbJfx5o6jHO3/a8iwa1XpFNwoJmVm4/gdCuYTA7i4/2RZIkbL+tBbEJrd2d9o42oGD2ySqJHfACHaywnfHpPaIQf/7o9m26R3q3EJpODme/vo7nuf5/nV9Vgo6zGwuufFLBsZy1NRgfx4Xpe/LiAgsJmxg2PxeVRfPYeHWU1OgkN8wMJusWcmnl2Wr2af981gCHp3q1Ej6Lw6hf7Kf6dbt+ePUKY+rdU1q6pYvPvvG/yP3ry5pcH2H+gGSSYdHYSmzdWs31Pfft34NjvwvHfC6vFhcni4qtFpbwxJ4+iShMexbvX1ONpTc6zmZ3EJAehUsv0Twul5gRtKiGrJe64oQ+XnJFwwipb/4m/3BjkjoPNfL607DezSx1OD3X1FlbntC6sXFjYzO6DzVgsTgKDNJTVWDBanDS0ddXN/qaQWy5NY1hmBMWVZhSPQm2jHUWB2rbB/6IKE38bHcc/zkvCalew2lzUN9uxWF0oQF1T65ek3uDA6XSzZms1D07NwOHy8NOmGgwGO7de0p1Gk4vPV1ZiPsHrpfbNCOWpKb3Q+WhdldVbeW1uIfa2rkSHw0OvlGCevb0/eo3Eqt117MitIzUxgLp6Gwnhfkz/ew/8tWo++LGYn3fUcP15SbgV2J7XiMPpprrBigI0mxxYbS5WbKjijivTsTvdvL6gFKPh127Qt+cf5IFrMsjuFUZEgJq3vikCRaG4ykxIoJpVObUoHoXqchMV9VYevLEPGpXMprxGDpebuG9yBt+srMBkcvLTmgruuTqdbXvrMf0P033iYvz51z/7eI0/AjSanDzzUT41NRbUWhXFVSavioXB5MBqc2NscfDJ4kM8Ni0TCYmvlh0md38Td0/pzSPTs4iL1LMcqGmw4nB6qGm0EaKTuXJSdyRFod5kx2h1YbE6QYHD1RYURcFgdGK1udmW38iF4xJRAc0GB4WlLZwxOIaHbs6kttFOabGBoAA123fUMf3KdIZlRlBRb2P3rlqGtCWIOBxuDv+PY97+ARpm/jPTa/wRwGJ389JXhf/9+OOxFCivtaB4FH5aTu6TAAAduklEQVTZWEVm92DunZaJVoLXvzhAbKw//7wsDZUk8dWiQ6CVmXx+Ml8sK8Mgg0stY7Y6UTxQXW+l2eDAYXNz/y19SY72Z01u5y5XKcsSt/yjJyMzvafHOF0ePll6iKUrKjq83tji4OKzujFxUAwKsGB1GWaTg6v/norF5Ka+0YrB4EDdtjZ1Tb2ViIQA0uIC0I5N4Lyx8azcXkNDg41LJnXHXy1js7kxmJxo2kLO/sMteNwe7DY39c12nBqJ5gYbd722m2mXtCbF/bLxCHabi5oGGyhQ32TH5fRw+HALD9zej3e/LuSOKzMwOVxszq1j///ycz/GhWd348qzkzp1/BFAUpS/zlTxXSUGHntn3x+mgWu1Mk6np722pNG0/l2SJbQaGZfLgyRJuNoystRqGbVawm5vnT5w9P1H/wugUsuoZAmn041aLaPQOhjvcSsd3u9ytV5Xq1WBouBw/noNlar1GidSYJCGt+8dQGqsv9ex8nord76e0z5tAVprgX661laTy63gbJtWodHIuNs+j06nwuVW2vcAVGtaP/vRsmu0Mk6HB5VaQvG03ge1RkaW8DkFR6tTEahXY3O4sbRlWOr8VK2BRwJn2zkqlURQoAaPQvv6qDqd3GFytU6nwuny/Om5dyqNzCt392d4ephXl2+L1cWDb+ey5ZjeBp2fqvVzH3O5Yz83gFrbWjFxOTz06x9JVvdgflpfxS2X9+SrhSVUN1hxOxUURUGlaf0eOB2t3xeP0nrPPW4FrU6Fw+5GVkvgab2kVifjcHjQqGUcdnfrd1gn47C33jNZJeF2epBVEhqtjMPmQUFBo1XhbHu/RiP/+Z1xZIkHpmVy+dh4r4eX063w6txCvllU+j8namh0reWF1q54rZ8KR9sUJKRfpxm4HK1d8Vpd6/QOSWo9QWn77qq1Mn5qFZPOS2bR6nJuvKQHP2+rZv/eztuJ5JILU7jvinT8tN4V1nm/lPHiu3vbe1GOUmlkNMcsyOBwtH7n1BoZh82NWiu3Tw1xuzyotTJul4LumB4Qp7P1fml1rd9ZrVaFy+kGJNwuDzp/NXarC0mWWrNFJdq/e2qtjCxLOGxuJKm1PC6HB7VGbn0OSFLr70Lb+UfLdSL0HxLNa3cN8Moq7wx/mQBZa7Dz4Nv7KCoTWxQdFRai5eU7s33W7G1OD49/mMe67bWnoGRdk5+fivun9ubCoTFex1wehTcXFPP5Qu/s6P+GrJaYcnEaaXH+rNhRy/qtNV16Lu3vUakkrv5bKvf8vYfXMUVR+HFzNS+8t689sHUVsixxzpkJjMiMYHthEz/9XNY5F5Zg9PBYXr8j2+cao3tLDcx4ehtGsSJYux7pIbz/xDDCAr17czrDXyJAtlhd3P/2XvKLDV1mknZX8NANvTl/aIxXn73T7eGJT/ezZnO1WDrtGFdf1J1bL0zx2r9PUWD2klI++qZILJ12jOFDYnjxlr5eS6cBLNtVy9Nv5WI7kXMuT3NR8f58/NhQ4sK9l07bd7iF22dupVkEx3baADVznh1BVveQU1aG034M0uHyMOu7YvKLDKe6KF2GRiPzj/OTfQZHgC9XVbB6c/Vp23I50WRZYsywGGZM6u5zjGNVTh1ffF8iguNREvTKCOPl6X19bm5bWGli1qf7RXA8RmysP3MeH0acjw3NDWYnL3+QJ4LjMYKCNbz48OBTGhzhL5DF+unKclZtrTnVxehSJo6MY9o5ST6D4/I99Xz6Q6kIjsfIygjjkSvTfQbHfWUmnv8wr31sVIDoSD3PTMv0GRxrmu08OGsP1Sd4sYvTmVot89CNmT6Do8Xu5q5XdrEnr/PGQE8H067OYGiGdxJTZzttW5AeBZZsq+GzhaWnuihdSkZaMNMv7u5zSaZdxQaenr23PelFgNhoPY9O7UWoj6k1ZXVWHnozh8YutlTZqRQcrGXmrVn08DGubbS4ePKDPMoOizyAo3R+Km6/vjdjsrwXI3B7FN6Yd4Cc46aY/X+mUsv87aIUrj0n2WvruVPhtG1BHqgw8t6C4lNdjC4lvXswL03PIsTHmFCz2cULn+0XwfEYkRF+PD89i2QfK7w4XB5mfpRPldjtpJ3OT8X91/dmRIbvuXsvzStkZ4542B8lSRJXXdSdK89I9Hn80xWHWbj4cCeXqmsbMzKW+6/M6BLBEU7TFmRptYV739r7Hy2i+/9FYKCG2y/v4bVrB0B9i4MZs3IoqxCbSh+l1am46dIe9PGx0ofZ7mbmJwXs3tO58+O6Mlkl8ffzkzlviI8MX7fCR0sPsXhZJ2WDng4kGDYkmmkXdve5aMGKbdW8+e6+U1GyLqt7WgiP3Jh5Snbt+C2nXQvSZHXx768KRXA8hr+/mudu6Ut2arDP47MWFHO4E3cB6OpUapnbr0xn0tBo30lMK8tZs/FIp5erq5IkuHRiEndcnOaz637d3no+F705HQzpH8W/b+3ncx/Dw7UWXp6TdwpK1XUlJwXx+oODiAo5+cse/jdOqxakyebihbkHySv88/vL/dVIElw/qTsDe3hnezlcHj5aVsayDVVi+ssxLhgbz8UjY5GPe9i7PQo/76jlvXmFXhO1/z/Lzgxn+iVpaI9biUkBcooNPPrGHhx/sIfq/yfR0XrumZxBoI9lCstqLVz/+Gaaa//3Zff+KvQBGu66oQ9J0d6LmZxqp00L0uVW+HDxYdaJjNUO/nF+MpeMifN57Kct1Xz2Q4kIjscYMTiaOy71ftgD7Chs4t8f54vgeIyU1BBeuLUf4T667o802Hj6vb0iOB4jJELHaw8MJL1tfeFjOV0env1gH801IjgepdWreOrubM7IjjrVRfHptGhBehSFZTtr+WFN5akuSpcydmgM0y9I8WoJAeQeauGd+UVdfkPnzpSeFsLj12b4nNheVm9h5px80XV/jPAIP56e1ofYUO9ur0aTg0dm76OsTIxrH6XRqrj32l70SvQe17bY3Tz/aT7bxcpVv5Lg2kvSGD8wxudOPl3BadGC/CWngde+LGxf91SAuIQA7rws1Wdw3HfYyH2z9mAy/v6atP+fBARpeXxq7/YtpI5V3WzngVm5VIuM1XYqrczjN2WSmew9rm11uPnXJwXs3SuSmNrJMGNKBucM9d5NxqPAxz+WsHipyFg91qTzU5j2N9/j2l1Fl29BFh8x896C4hO+iPfpLD7Wn3fu7k+Ej24vg9nJa/MKMYiWULvgIA3/ui2L9ATfa9K+8e1BDhSLlZiO0mpk7rquN+OyIr2OudwKX6woY9Xm6lNQsq5JkiQuPTeZyWcneR1TFIXVu+v49LsiMdRxjCGDo3l4Sm/0uq6TsepLl25BVjXaeeS9fdScgH3k/iokSeLeq9N9Bkej1cW97+ayTyQxdTDtsh70T/VOYnK6FF746gDL1ookpmNdODGJS0bFe72uKPDVqnLmzD2IIrru2/XuG86tl6X5PLZubz2PvbwL5wna2eKvIDzOn8du6tvlgyN04Rakyebi5a8LqaoWwfEovZ+Ku6dkMDQ91OuYR1F476dS9haI4HiUWi1zxflJ/GOM98Me4LsNlSxdXSGW3WsjyRIjh8Xw8FW+l93bXtjEx/PFgu3H6tEjhNn3DyBA6/0oray38tpH+WJN2mNERut578lhXTJj1Zcu2YJ0exRe+baYnSdos82/isvPSeLcgdFeryvAhysqWLi6wvuk/8dGD47mpvNSfB5bnlPHW18WipWFjtE9JYjHJ/fyGRwLyo08NmsPLaLrvp1/gIYnpmX6DI61zXZue26bmH98LAnu+2cm3WO8hzq6qi653VVZnZWl28V0jmNpVDLXnpXoc3pCk8nJ3LUVeMSzvp0kS1w9LpHQAO+Hl83pYe7aCpr+YGPt/28uHhlHdx81e49HYcn2GoorRcbqsUZkRTK0p3dvDsDWgkY2iSSmDnokBTFpuO8paV1VlwyQgiAIgnCqdckuVkEQBEE41USAFARBEAQfRIAUBEEQBB9EgBQEQRAEH0SAFARBEAQfRIAUBEEQBB9EgBQEQRAEH0SAFARBEAQfOn0t1iVLlnT2JQVBEAThvyZW0hEEQRAEH0QXqyAIgiD4IAKkIAiCIPggAqQgCIIg+CACZCdpbmpi3bp1tBgMnXbNg4WFrFu3DpvN1mnXFARB+KsQAbITuFwuXn7xJT56/wP0+s7ZSdtut/P4I4+xZfNmNBpNp1xTEAThr0RksXYCq9XKLytW0qdvJqmpqZ1yzebmZrZt3cqYsWPR6/Wdcs3O5vF48Hg8yLKMx+NBre70WUuCIPyFqWbOnDnzZF6gob6eTz/+hNdffoXFP/2Ey+UiJSUFjVb7m+coisInH33Em2+8wY7tOxg6bBjatve/9uqrfDB7Nj8sXMjSJUspLS0hMTERPz8/Xn35FRZ+v4Chw4bh5+cHtD5Ev/ryS9558y36ZPYhNCyMQ4cO8dEHc3h71pss+uknXA4nSSnJ7ddQFIUvPvuMN157jU0bNzJs+HB0Oh0ATqeT9WvX8cpLL/PZx5+wY/sOIiIjiI2NxWKx8PADD5Cbs4dRo0fjdDrJzdnD7LffYfWqVRQeKCQgMICYmBjUajUL5n/HKy+9THJKCrGxsQC8/uprzP/mW8aecQZqTesDv6K8grvvvIMVy5bTf+AAgoKCALDZbDz39DN89sknuN0eevfpg9Vq5eclS3ln1pts37aNooNFxMTEEhERwfxvv+WVF18iMiqKpKQkABobGnjogQfZvXMnQcHBPP7oo+j1ekJDQ3ng3nsxGk30zerr8+e0bOnPvPDcc/zw/fcs+uFH9u3dR2RUJJGRkUiSxLq1a3n26adZu3oNw4YNx0/f+jNZuWIFzz/7LAu//56ffviRPTl7CAsLJyo6CkmSANhfUMCjDz3Mwu+/JzU1jZiYGK/rz/t6Lh9/9DFNDQ18M3cudoedf7/wAnp/f1JTU5EkieamJh556GG2btlMfGIijz/yKN/N/5YfFi7kh4ULWfTjT/Tpm0l4eDhFRUW8/+5s3n3rLX5euhS3y01SchJarZa5X3/N7HffZdCgQSz66SfeffttMnr1Ijw8HLvdzisvvsTiRYsYPGQIOp2Oqqoqvvr8C954/XUW/fAjLS1GEhIT8Pf3p6GhgZmPP4FWp+Xdt94iOjqm/ecvCELXcVK7WF0uF8889TRzZr9H/0EDCAwM5MlHH+fHhT/87nn19fV8/OFHrF+zjsU//kRRUVH7sb25ueTm5JLdfwDR0VHMfusdnnjscRx2O7k5e9i2dRsOh6P9/YqiUFx4kE3rN9BiNFJ95Ah3zbiNOe+9j9Plorqqiicfe5ynnniyfayusbGRDz+Y03b9RRTk57f/W1998QV3334HO7dtR6VWsWTxImbcPJ1dO3bicrrYsnEzuXv2ALBk0WJumDqVlStWEhQcxJZNm7jlxn/y7bxvACgtKWHtqtW89vLLOB1OFEUhb+9etm7Zgsvtav8MZrOJ9WvWsXzpz3w850OONvoL8vP55uu5rF+zjtLSUux2O88+9TQPP/AAJaUlKMBXn3/BbbfcQmlJCaGhoWxav4EVy5fh8XgAWL1qFcuX/kxcfAINDQ1sWLueqopK7DY7m9ZvpKSk+Dd/TuVl5WxYu47IyCgys7JYvmwZ06Zez4H9+wFY/NMi1vyymiWLFrNx44b28yrLK1i/Zh3hERH0zuzDurVr+ed115O7JxcAt9vN3K++ZtXKX1i3eg0/L1mC2+32uv7K5csZPXoUq1etInvAACIiItixdTtLFi3C2fYd2LRxI0sXLSY0LAyDwcCmDRuor68nISGBhIRE4hMS0Gq1FB08yPRpN/H5J5/iURRKDhbz2EMPM+v11/F4PJQUF7NlwyasVislRcUsX7qMF1/4FyajEbfLRW5ODju2bcdht1NVWcmdM27jzdffwGGz09TYyAvPPMsj9z+IobkZg8HAti1bW1v5W7bhPuZnLQhC13FSA6Tb7Wb4iOE8/cJz3P/gg0y+bipuxUNZWdnvnrd961Zqq2sYM3YsNpuN7Vu3dTgeHBzEDdNu5Klnn+WSyy9j946dVFRU/GF5FI+Hzz77jJLiEp5/8d/Mm/8tCxcv4twLzmfP7hzK28qVs3s3RyqrGDFqJC6Xi62btwBQUVHBm6+9Qfe0VH7+ZQVfzp3LvPnzCQkJ4dtvvulwLafTydyvvkKj1vDx55/y4Sef8PW33xARFcnXX3zZIXFmy6bNzHr9dZxO5x9+hoXfLaCivByAVb/8gsfjaW915e7Zw4Jv53PGuHEsWb6Mr+bN5eMvPqOpqYlXX3qZ3r37EBEZSc7O3TgcDmw2Gwvmf0dYeDgTzz3nD6/9W849/zzuuvcebrv9dhobG9mxfTtNTU1s3byZESNHEhsby7dz53WouACcc+653Hv//dx5110YjUZ27tgBtFaQ1q9ZS8/0dOLi49i+dRtWi8Xruj3Te5LWoyc90nuSlpZGj549SUhMJG9fHgZDCw6Hg8WLFhMYFMRZZ5/dft6o0aN56tlneeb553jq2WeIi4vjnbffpr6+nlnvvs3X337DouU/M+6s8WxYu56amhqfn3vT+g18v2ABnuNGKVYsW07+vjzuvPduvvp2HvMWfMdVk69h8+bNbNu2jerqakaPHY2/Xs/Q4UPJzMz80/deEIST56QO2uh0Oq68+mpaWlp44N57yd2zl379+jHpbxf95jlOp5O1q9ei9/dnyvVTKSkpYe3q1dww7UZUKlWH9zocDupr61Fr1L/bZXuU3W5ny4aNJKUkM+miSUiShE6n49EnHsdkNBIdE4Pb7WbD2vWoNRqunTqFivJyNq7fwIw7bqe0uISWlhbOPGs8wSEhAPTq3Zs5n36MLHesa7QYDJQdPsyQ4cPo1bs3AN2Skrj0ssv4aM6HVFVWAiBJEhl9evPRB3PI6tfvd8ufktqdQyWlrF+3jkv//ndW/7KKMePGsnVTawAvKjyI2+1m/ISz2xNzhgwdSt+sLHbt2oXOT8fZ50zkh+8WUHjgAHq9nrx9eQwdNpSYmBj2FxT84T38PY1NjXgUDzo/P35ZuZL6unoeevRR1q9dy48//EhxURG9+/Rpf7/VYqWuro5du3bidrsJDQ0FYH9+AbW1tUy94XqsFgsLv1/IoUOH6JuV1eF6Dz7yCAD9B/QHWrvTx084m08//IiC/Hy6p6Wyd08uaWlpJCUnc+DAAQDWr11Hc1MzkgThERFcfe21FBYcIKV7CoMHDwZAr9fzzPPPYTIaiYiI8Pqsfno/Mvtm8eZrbxCfkNDhWM7uHAKDg5h00UWoVCpUKhWXX3EF3837lj05e7jz7rsYMGAAarWaUWPGoGsbDhAEoWvplCxWRVEwmy14PG6aG5tobm7+zfe2tLSwJyeH8PBwIqOiyOqXRd7efewv2N/+nvKycm6ceh2XTJrE+rVrOe+CC0g47iHli8fjwe5woNVqkY8JtmFhYXRLSsLPzw+r1crOHTsIDQ0hJjaW/gMGsL+ggLx9eTidDpBAp/v1gSZJEvHx8V5jSC6XC7fbjd5f397CAwgIDMDjdmO329tfmzJ1CvEJ8bzz1luYzKbfLH9m375k9OrFL8tXsnL5Curr67lm8pT24Hy0Bao9prIgSRJanQ6Xw4ni8XDFP64ACRb99BM5u3OwWi2MGDnSq/Lx33j2qae58rK/886st+iTmcmgQYNYMH8+QcFBRMdEk5SSjNPhYP26dRybE/bAPfcyasgwvvj0c8adOY6zJrS28jZu3IjdbicltTsDBg3CarGwdPES/iifTJZlJl00CbVGw/JlP1OQn09TYyPDRgwnICCg/X31dXXs27uXfbn7KNx/AIfDgdPlRKPWdKjohIeH0y0pqcP9/PVaKm6YdgMhoSHMevU1Ghub2o857DY0Gk2HSpufnx+SLGO3tR7T6/VoNBr8/Tsnq1kQhP/eSW1Bms1m9ubmEhMby1vvvkPRwYNc9fcrmPf1XEaMHOnznNw9uVRWVOB0Orll2k0YjUYsZjMLFyygd5/WlpjeX8+ZZ51FaGgIqWlp9PkPu6j0ej0ZGRmsX7eeoqIi0tPTcbvdfDD7PbZs2swjTzxGY2MTh9rG82bcdDMmkwmLxcL8efO44qqr0Kg17G0bYwQwNDfz2MOPEBkVxV333NP+emhYGJGRUezavpOG+noio6Iwm80s+3kZYWFhHVodCYmJvDLrDW6+cRqGpmYioiJ9lj8gMIB/Tr+ZmY8+TmFhIX379iU5JfnXf6dbNyRJIjdnDxdOam0h19fXU3jgAMkpyQSHhBAREUmv3r1ZtvRnDpceQqPWMGLUyA5B/L81YOBAsvtnc9Ot0+mXnU1tTQ378/djMZu5ffoMHHY7brebzRs3M+W669rPu+u+ezCbzMx5733GT5hAaGgoZrOZDW2B9KUX/o0syzidTpYuWswN/5zmszV3rLQePeg/oD9rVq/BYrGgKApnnjW+Q+C7YNIkbr/rTmRZbv8TFx9HUeFBamtrCQoOBuDtWW+yY/t2nn7uOZ/XSk5J4b6HHuKBu+/BbrfTLbk18SktPZ21a9aSs3s3Z0+YgKIobNqwEYfdTs/09D99nwVB6FwnNUAaW1p48N77CQwM4P6HH6IgPx+LxUJkZCQ2m4233phFRFQkk6dMQa1W43a7WfjddyBJPPPCcyQkJmI2m3nuqadZs3o1N02/BYDIyEiunTK5PZsTaB/Tc9jsbN+6jdDQUCRZZtjwYe3vkWSZyddNZfPGTdx8wzSuvOYqmhqb+ObrufTMSCciMpL3352Noig8/fyzdEtKwulw8szMp1i1ahU33nwT5114AT8vXsI9d9xJVnY2K5YtY9/efTz5zFMdPrtWq2Xiuefw9ptvct899zJx4kQ2bthAzs5dTL5uKiFtXbRH9evXj2unTOaNV1773Xs6YeJEZr/1DgcLC7llxq0dHvwDBg6gX3Y238ydh9vtJj4hngXffkeLwcBjTz7Rntk7cvQo3np9FtVHjjBsxAi6/87UkyNVR9i4vjXBxj8ggOz+2V7dyRdMupDxZ53V/vefFy/BYjZzxZX/4Nzzz8fpcvLyv/7N/oICaqt/Hc9L69GDkaNGsWHdema/8w5njBtHfn4eh0sPceFFk7j8yn8A8M1Xc1m6ZAk7d+xg4jm/P1aqUqkYN/5MNm/cxOJFixkwYEB7F/dR9XV17M3NRZZag2NmVl+uvPoaHrn/Ae6YcRuXXHYZ5WVlLJg/n9FjxhAdE+3zWpIsc86557Bn92Q+nvNh++tnT5jAwu++4+knnqTwwAGsVhtzv/iS5O4pjBjlu2IoCELXc1IDZExsLC+8/CL/euY5brr+RjQ6LRPPO5frb7wBh8PB5o2biIqJ4qqrr0atVlN2uIwN69czdPgwLrv8cmRZxuVysWHtOhZ8t4Cigwf/8Jr1dXXcddvtAKg0avIO7O9wvP+AATz9wnO88cqrvPLvl1Cr1Vx08cXccc9dmE1m1qxeTf+BA/n7FVegUqnweDxMmDiBTz76mOKiIh6f+SRR0VF8+fnn/PTDj0RFRfHYzCf428UXYzaZ268jSRI3TLsR/wB/PvnwIzauW094eDg33zqdG6bd6LPs10yezJaNmzh0+PBvfj69Xs8ZZ46jpqaa0WPGdDgWHh7OW++9yxuvvMq8r77G6XSSlJTEk08/zZnjx7e/b/iIEcx+6x0UFK66+ur2KSy+LF20mKWLFgOQnpHB/B++/8N5levXrkWn0zHlhuvp0aMH0NqbcO9dd7Ni5QrU8q/duQEBAVwz5VqeePRxvvriCw4ebJ0KM/22GaRnZLTfy1WrVrFr+x8HSIBBQ4YQGBSI0Wjk4ksvaa8YHLVk0WKWtH0mWZb5ev43TJg4AY/nBd545TX+/dzzaLVaLr3879x2x+2/e38ArrvxBrZt2YqhpXWVpL5ZfXnp1Vd57eWXmfXq68iyzIhRI7n7vnv/o6EAQRC6hk5ZKEBRFFpaWtDpdB0eVna7HbVa/T+Nf/0vjEYjapUK/Z8YB/J4PBhbWggOCfnD7kmPx4PBYCAoKKjTJrO7XC6sVmuHVrbwnzEajWg0Gq/A+meYTCZUKtVfdrEGQfgrEyvpCIIgCIIPYi1WQRAEQfBBBEhBEARB8EEESEEQBEHwQQRIQRAEQfBBBEhBEARB8EEESEEQBEHw4f8AWs0O31i6acgAAAAASUVORK5CYII=;" vertex="1" parent="1">
          <mxGeometry x="-420" y="1940" width="456" height="114" as="geometry" />
        </mxCell>
        <mxCell id="sjNVkHmS2LZbyqBBIwIx-19" value="Scrum team" style="shape=hexagon;perimeter=hexagonPerimeter2;whiteSpace=wrap;html=1;fixedSize=1;fillColor=#ffe6cc;strokeColor=#d79b00;" vertex="1" parent="1">
          <mxGeometry x="-660" y="1640" width="120" height="80" as="geometry" />
        </mxCell>
        <mxCell id="sjNVkHmS2LZbyqBBIwIx-20" value="product backlog" style="shape=hexagon;perimeter=hexagonPerimeter2;whiteSpace=wrap;html=1;fixedSize=1;fillColor=#f8cecc;strokeColor=#b85450;" vertex="1" parent="1">
          <mxGeometry x="-660" y="1800" width="120" height="80" as="geometry" />
        </mxCell>
        <mxCell id="sjNVkHmS2LZbyqBBIwIx-21" value="Sprint backlog" style="shape=hexagon;perimeter=hexagonPerimeter2;whiteSpace=wrap;html=1;fixedSize=1;fillColor=#dae8fc;strokeColor=#6c8ebf;" vertex="1" parent="1">
          <mxGeometry x="-660" y="1960" width="120" height="80" as="geometry" />
        </mxCell>
        <UserObject label="https://josuehuaman.atlassian.net/jira/software/projects/AV/boards/1/backlog" link="https://josuehuaman.atlassian.net/jira/software/projects/AV/boards/1/backlog" id="sjNVkHmS2LZbyqBBIwIx-22">
          <mxCell style="text;whiteSpace=wrap;html=1;" vertex="1" parent="1">
            <mxGeometry x="-380" y="1830" width="440" height="40" as="geometry" />
          </mxCell>
        </UserObject>
        <mxCell id="sjNVkHmS2LZbyqBBIwIx-23" value="product increment" style="shape=hexagon;perimeter=hexagonPerimeter2;whiteSpace=wrap;html=1;fixedSize=1;fillColor=#e1d5e7;strokeColor=#9673a6;" vertex="1" parent="1">
          <mxGeometry x="-660" y="2120" width="120" height="80" as="geometry" />
        </mxCell>
        <mxCell id="sjNVkHmS2LZbyqBBIwIx-24" value="Sprint backlog" style="shape=hexagon;perimeter=hexagonPerimeter2;whiteSpace=wrap;html=1;fixedSize=1;fillColor=#dae8fc;strokeColor=#6c8ebf;" vertex="1" parent="1">
          <mxGeometry x="-660" y="2280" width="120" height="80" as="geometry" />
        </mxCell>
        <mxCell id="sjNVkHmS2LZbyqBBIwIx-25" value="se entregara un incremento a mas tardar cada mes" style="shape=document;whiteSpace=wrap;html=1;boundedLbl=1;" vertex="1" parent="1">
          <mxGeometry x="-360" y="2130" width="290" height="60" as="geometry" />
        </mxCell>
      </root>
    </mxGraphModel>
  </diagram>
</mxfile>
